<?xml version="1.0" encoding="utf-8"?>
<svg width="186px" height="186px" viewBox="0 0 186 186" version="1.1" xmlns:xlink="http://www.w3.org/1999/xlink" xmlns="http://www.w3.org/2000/svg">
  <desc>Created with Lunacy</desc>
  <defs>
    <path d="M0 0L184 0L184 184L0 184L0 0Z" id="path_1" />
    <clipPath id="mask_1">
      <use xlink:href="#path_1" />
    </clipPath>
  </defs>
  <g id="Sin-título-2_Mesa-de-trabajo-1" transform="translate(1 1)">
    <path d="M0 0L184 0L184 184L0 184L0 0Z" id="Background" fill="none" fill-rule="evenodd" stroke="none" />
    <g clip-path="url(#mask_1)">
      <g id="Group" transform="translate(6.7265625 3.800537)">
        <g id="Group" transform="translate(38.66211 36.77002)">
          <g id="Group">
            <g id="Group" transform="translate(19.927238 77.311615)">
              <path d="M0 8.59024C0 3.84598 3.68385 0 8.22811 0C12.7724 0 16.4562 3.84598 16.4562 8.59024C16.4562 13.3345 12.7724 17.1805 8.22811 17.1805C3.68385 17.1805 0 13.3345 0 8.59024Z" id="Ellipse" fill="#E4E4E4" fill-rule="evenodd" stroke="none" />
              <path d="M0 8.59024C0 3.84598 3.68385 0 8.22811 0C12.7724 0 16.4562 3.84598 16.4562 8.59024C16.4562 13.3345 12.7724 17.1805 8.22811 17.1805C3.68385 17.1805 0 13.3345 0 8.59024Z" transform="translate(49.368294 0)" id="Ellipse" fill="#E4E4E4" fill-rule="evenodd" stroke="none" />
            </g>
            <path d="M83.8835 8.59024L16.2838 8.59024L15.6123 6.18674C14.596 2.54383 11.3478 0 7.71379 0L2.05708 0C0.920063 0 0 0.960556 0 2.14761C0 3.33467 0.920063 4.29522 2.05708 4.29522L7.71379 4.29522C9.53174 4.29522 11.1549 5.56623 11.6631 7.38869L24.4672 53.219L17.9064 61.7798C16.9703 63.0025 16.456 64.5357 16.456 66.1C16.456 69.9149 19.427 73.0166 23.081 73.0166L80.2235 73.0166C81.3605 73.0166 82.2805 72.056 82.2805 70.869C82.2805 69.6819 81.3605 68.7214 80.2235 68.7214L23.0812 68.7214C21.6972 68.7214 20.5702 67.5448 20.5702 66.0998C20.5702 65.5063 20.765 64.9232 21.1206 64.462L27.7311 55.8361L68.0783 55.8361C71.2502 55.8361 74.173 53.9003 75.525 50.9035L89.88 19.0573C90.2917 18.1408 90.5087 17.1237 90.5087 16.1148L90.5087 15.5066C90.5085 11.692 87.5375 8.59024 83.8835 8.59024L83.8835 8.59024Z" id="Shape" fill="#E4E4E4" fill-rule="evenodd" stroke="none" />
            <path d="M86.3161 26.9637L89.88 19.0573C90.2917 18.1408 90.5087 17.1237 90.5087 16.1148L90.5087 15.5066C90.5085 11.692 87.5375 8.59024 83.8835 8.59024L16.2838 8.59024L15.6123 6.18674C14.596 2.54383 11.3478 0 7.71379 0L2.05708 0C0.920063 0 0 0.960556 0 2.14761C0 3.33467 0.920063 4.29522 2.05708 4.29522L7.71379 4.29522C9.53174 4.29522 11.1549 5.56623 11.6631 7.38869L24.4672 53.219L17.9064 61.7798C16.9703 63.0025 16.456 64.5357 16.456 66.1C16.456 69.9149 19.427 73.0166 23.081 73.0166L80.2235 73.0166C81.3605 73.0166 82.2805 72.056 82.2805 70.869C82.2805 69.6819 81.3605 68.7214 80.2235 68.7214L23.0812 68.7214C21.6972 68.7214 20.5702 67.5448 20.5702 66.0998C20.5702 65.5063 20.765 64.9232 21.1206 64.462L27.7311 55.8361L68.0783 55.8361C71.2502 55.8361 74.173 53.9003 75.525 50.9035L83.2508 33.7641" id="Shape" fill="none" fill-rule="evenodd" stroke="#303C42" stroke-width="2" stroke-linecap="round" stroke-linejoin="round" />
            <g id="Group" transform="translate(19.927238 77.311615)">
              <path d="M0 8.59024C0 3.84598 3.68385 0 8.22811 0C12.7724 0 16.4562 3.84598 16.4562 8.59024C16.4562 13.3345 12.7724 17.1805 8.22811 17.1805C3.68385 17.1805 0 13.3345 0 8.59024Z" id="Ellipse" fill="none" fill-rule="evenodd" stroke="#303C42" stroke-width="2" />
              <path d="M0 8.59024C0 3.84598 3.68385 0 8.22811 0C12.7724 0 16.4562 3.84598 16.4562 8.59024C16.4562 13.3345 12.7724 17.1805 8.22811 17.1805C3.68385 17.1805 0 13.3345 0 8.59024Z" transform="translate(49.368294 0)" id="Ellipse" fill="none" fill-rule="evenodd" stroke="#303C42" stroke-width="2" />
            </g>
            <g id="Group" transform="translate(19.927238 77.311615)" opacity="0.15">
              <path d="M0 8.59024C0 3.84598 3.68385 0 8.22811 0C12.7724 0 16.4562 3.84598 16.4562 8.59024C16.4562 13.3345 12.7724 17.1805 8.22811 17.1805C3.68385 17.1805 0 13.3345 0 8.59024Z" id="Ellipse" fill="#333333" fill-rule="evenodd" stroke="none" />
              <path d="M0 8.59024C0 3.84598 3.68385 0 8.22811 0C12.7724 0 16.4562 3.84598 16.4562 8.59024C16.4562 13.3345 12.7724 17.1805 8.22811 17.1805C3.68385 17.1805 0 13.3345 0 8.59024Z" transform="translate(49.368294 0)" id="Ellipse" fill="#333333" fill-rule="evenodd" stroke="none" />
            </g>
            <path d="M0 1L30.2368 1" transform="translate(40.92044 43.287354)" id="Line" fill="none" fill-rule="evenodd" stroke="#303030" stroke-width="2" stroke-linecap="round" stroke-linejoin="round" />
            <path d="M0 1L30.2368 1" transform="translate(47.28688 31.863358)" id="Line" fill="none" fill-rule="evenodd" stroke="#303030" stroke-width="2" stroke-linecap="round" stroke-linejoin="round" />
            <g id="Group" transform="translate(19.927238 77.311615)" opacity="0.15">
              <path d="M0 8.59024C0 3.84598 3.68385 0 8.22811 0C12.7724 0 16.4562 3.84598 16.4562 8.59024C16.4562 13.3345 12.7724 17.1805 8.22811 17.1805C3.68385 17.1805 0 13.3345 0 8.59024Z" id="Ellipse" fill="#333333" fill-rule="evenodd" stroke="none" />
              <path d="M0 8.59024C0 3.84598 3.68385 0 8.22811 0C12.7724 0 16.4562 3.84598 16.4562 8.59024C16.4562 13.3345 12.7724 17.1805 8.22811 17.1805C3.68385 17.1805 0 13.3345 0 8.59024Z" transform="translate(49.368294 0)" id="Ellipse" fill="#333333" fill-rule="evenodd" stroke="none" />
            </g>
          </g>
          <path d="M0.627853 1.23439C0.464722 1.23439 0.299911 1.16771 0.187241 1.05695C0.069519 0.941223 0 0.775352 0 0.617195C0 0.459038 0.069519 0.293167 0.180511 0.184059C0.299362 0.0677795 0.465286 0 0.627853 0C0.789871 0 0.957489 0.0688858 1.07576 0.184608C1.18507 0.292618 1.25571 0.459587 1.25571 0.617195C1.25571 0.774796 1.18507 0.941772 1.07184 1.05364C0.95636 1.16661 0.790421 1.23439 0.627853 1.23439L0.627853 1.23439Z" transform="translate(83.922005 29.973488)" id="Shape" fill="#333333" fill-rule="evenodd" stroke="#333333" stroke-width="2" />
        </g>
        <g id="Group">
          <g id="Group">
            <path d="M78.8596 0.219358C80.9215 0.0731195 82.9908 1.19209e-07 85.0674 0C87.2211 1.19209e-07 89.3667 0.0786372 91.5043 0.235911C91.7909 0.256995 92.028 0.376306 92.2158 0.593846C92.4035 0.811385 92.4868 1.06344 92.4657 1.35C92.4656 1.35105 92.4656 1.35209 92.4655 1.35314C92.4654 1.35418 92.4653 1.35523 92.4652 1.35627C92.4544 1.49274 92.418 1.62202 92.3561 1.74412C92.2942 1.86622 92.2114 1.97199 92.1078 2.06143C92.0033 2.15158 91.8856 2.2183 91.7546 2.26161C91.6236 2.30492 91.4893 2.32151 91.3516 2.31139C89.2648 2.15785 87.1701 2.08108 85.0674 2.08108C83.0399 2.08109 81.0197 2.15247 79.0068 2.29523C78.7214 2.31547 78.4704 2.23217 78.2537 2.04534C78.037 1.8585 77.9177 1.62245 77.8957 1.33718C77.8956 1.33614 77.8956 1.33509 77.8955 1.33405C77.8954 1.333 77.8953 1.33195 77.8953 1.33091C77.8855 1.19327 77.9024 1.059 77.9461 0.928103C77.9897 0.797206 78.0568 0.679643 78.1472 0.575415C78.2376 0.471187 78.3446 0.388228 78.468 0.326537C78.5914 0.264847 78.7219 0.22912 78.8596 0.219358L78.8596 0.219358ZM53.7031 6.97934C53.7035 6.98034 53.7039 6.98134 53.7043 6.98234C53.7047 6.98334 53.7051 6.98434 53.7054 6.98534C53.8091 7.252 53.9916 7.44337 54.2531 7.55946C54.5146 7.67556 54.7789 7.68262 55.0462 7.58064C58.8857 6.11586 62.8153 4.9407 66.835 4.05516C67.1144 3.99361 67.3315 3.84254 67.4863 3.60193C67.6411 3.36132 67.6885 3.10113 67.6287 2.82137L67.6273 2.81513C67.5655 2.53452 67.4136 2.31686 67.1714 2.16215C66.9293 2.00744 66.6679 1.96099 66.3873 2.02281C62.2674 2.93042 58.2398 4.1349 54.3044 5.63625C54.1755 5.68544 54.0609 5.75741 53.9606 5.85219C53.8603 5.94697 53.782 6.05732 53.7256 6.18326C53.6692 6.3092 53.6391 6.44114 53.6352 6.57907C53.6313 6.717 53.6539 6.85042 53.7031 6.97934L53.7031 6.97934ZM102.728 2.86197L102.727 2.86821C102.698 3.00199 102.695 3.13625 102.719 3.27101C102.743 3.40577 102.792 3.53091 102.866 3.64646C102.939 3.76293 103.033 3.86082 103.146 3.94012C103.259 4.01942 103.383 4.0741 103.517 4.10415C107.534 5.0004 111.46 6.18603 115.295 7.66104C115.562 7.76374 115.826 7.75739 116.088 7.64201C116.35 7.52662 116.533 7.33574 116.637 7.06936L116.64 7.06337C116.689 6.93458 116.712 6.80122 116.709 6.66328C116.705 6.52534 116.675 6.39333 116.619 6.26724C116.563 6.14114 116.485 6.03058 116.385 5.93553C116.285 5.84048 116.171 5.76819 116.042 5.71866C112.111 4.20682 108.087 2.9916 103.97 2.07301C103.69 2.01044 103.429 2.05618 103.186 2.21023C102.943 2.36428 102.791 2.58153 102.728 2.86197L102.728 2.86197ZM32.175 19.4465C32.1756 19.4474 32.1763 19.4482 32.177 19.4491C32.1776 19.4499 32.1783 19.4507 32.1789 19.4516C32.3559 19.6764 32.5864 19.8061 32.8703 19.8408C33.1543 19.8756 33.4092 19.8051 33.6351 19.6296C36.8819 17.1063 40.2975 14.8357 43.8821 12.8178C44.1314 12.6775 44.295 12.4696 44.3729 12.1944C44.4508 11.9191 44.4204 11.6564 44.2816 11.4062C44.2811 11.4053 44.2805 11.4043 44.28 11.4034C44.2795 11.4025 44.279 11.4015 44.2785 11.4006C44.2108 11.2804 44.1227 11.1777 44.0141 11.0925C43.9056 11.0073 43.7848 10.9461 43.6519 10.9089C43.5191 10.8718 43.3841 10.8615 43.2471 10.878C43.1101 10.8945 42.9815 10.9366 42.8613 11.0043C39.1871 13.0726 35.686 15.4 32.3581 17.9864C32.1312 18.1627 31.9999 18.3934 31.9641 18.6785C31.9284 18.9636 31.9987 19.2196 32.175 19.4465L32.175 19.4465ZM126.055 11.5103L126.052 11.5159C125.985 11.6354 125.944 11.7631 125.927 11.899C125.911 12.0349 125.921 12.1688 125.958 12.3007C125.995 12.4337 126.055 12.5546 126.14 12.6634C126.225 12.7721 126.328 12.8605 126.448 12.9286C130.027 14.9562 133.437 17.2362 136.677 19.7684C136.785 19.8533 136.906 19.9143 137.039 19.9512C137.172 19.9881 137.307 19.9981 137.444 19.9813C137.58 19.9647 137.708 19.9228 137.827 19.8558C137.946 19.7888 138.048 19.7016 138.133 19.5943L138.137 19.5893C138.314 19.3629 138.385 19.1071 138.35 18.8219C138.315 18.5367 138.185 18.3056 137.958 18.1287C134.637 15.5331 131.142 13.1962 127.473 11.1178C127.223 10.9762 126.96 10.9437 126.683 11.0203C126.406 11.097 126.197 11.2603 126.055 11.5103L126.055 11.5103ZM15.2478 37.6561C15.2487 37.6568 15.2496 37.6574 15.2505 37.658C15.2514 37.6586 15.2523 37.6593 15.2532 37.6599C15.4884 37.8227 15.7468 37.8789 16.0284 37.8286C16.31 37.7783 16.533 37.6361 16.6973 37.4019C19.0568 34.0383 21.6597 30.8642 24.5059 27.8795C24.7034 27.6725 24.7991 27.4259 24.7932 27.1399C24.7873 26.8539 24.6815 26.6116 24.4757 26.4128C24.4749 26.4121 24.4741 26.4113 24.4733 26.4106C24.4726 26.4099 24.4718 26.4091 24.471 26.4084C24.3711 26.3131 24.2569 26.2406 24.1282 26.1909C23.9995 26.1411 23.8661 26.1179 23.7282 26.1212C23.5903 26.1244 23.4582 26.154 23.332 26.2098C23.2058 26.2656 23.0951 26.3434 22.9999 26.4433C20.0817 29.5034 17.413 32.7579 14.9936 36.2067C14.9143 36.3197 14.8597 36.4435 14.8297 36.5782C14.7998 36.7129 14.7967 36.8482 14.8205 36.9841C14.8444 37.12 14.8933 37.2462 14.9674 37.3626C15.0414 37.4791 15.1349 37.5769 15.2478 37.6561L15.2478 37.6561ZM145.823 26.5717L145.818 26.5762C145.719 26.671 145.642 26.781 145.587 26.9062C145.532 27.0314 145.502 27.1624 145.498 27.2992C145.495 27.4371 145.518 27.5705 145.567 27.6994C145.616 27.8282 145.689 27.9427 145.784 28.0428C148.622 31.0353 151.216 34.2165 153.566 37.5866C153.645 37.6998 153.743 37.7936 153.859 37.8679C153.975 37.9423 154.101 37.9916 154.237 38.0158C154.372 38.0398 154.506 38.0373 154.64 38.0084C154.774 37.9794 154.897 37.9262 155.01 37.8486L155.015 37.8449C155.251 37.6805 155.394 37.4569 155.444 37.174C155.495 36.8911 155.438 36.6319 155.273 36.3962C152.863 32.9406 150.203 29.6788 147.294 26.6107C147.096 26.4022 146.853 26.2942 146.566 26.2866C146.279 26.2789 146.031 26.374 145.823 26.5717L145.823 26.5717ZM4.50121 60.0782C4.50228 60.0786 4.50334 60.0789 4.5044 60.0793C4.50547 60.0796 4.50653 60.0799 4.5076 60.0802C4.63832 60.1207 4.77182 60.1348 4.90809 60.1225C5.04437 60.1103 5.17322 60.0726 5.29464 60.0095C5.41709 59.9459 5.52271 59.8613 5.6115 59.7557C5.70029 59.6501 5.76549 59.5315 5.80709 59.3999C7.04694 55.4798 8.58248 51.6719 10.4137 47.9763C10.475 47.8527 10.5102 47.722 10.5195 47.5844C10.5288 47.4467 10.5114 47.3125 10.4673 47.1817C10.4236 47.0521 10.3568 46.9356 10.2671 46.8322C10.1774 46.7289 10.0715 46.6465 9.94927 46.5849C9.94828 46.5844 9.94729 46.5839 9.9463 46.5834C9.94532 46.583 9.94433 46.5825 9.94334 46.582C9.68587 46.4544 9.42101 46.4365 9.14875 46.5284C8.87648 46.6202 8.67656 46.7949 8.54899 47.0523C6.67032 50.8436 5.09495 54.7503 3.82288 58.7724C3.73624 59.0463 3.75914 59.3108 3.89159 59.5658C4.02404 59.8208 4.22725 59.9916 4.50121 60.0782L4.50121 60.0782ZM160.293 46.7859L160.287 46.7889C160.031 46.9168 159.858 47.1163 159.766 47.3873C159.675 47.6584 159.693 47.9223 159.819 48.1789C161.64 51.8791 163.164 55.6907 164.393 59.6136C164.434 59.7453 164.499 59.864 164.587 59.9699C164.676 60.0758 164.781 60.1607 164.903 60.2246C165.025 60.288 165.153 60.3261 165.29 60.3387C165.426 60.3513 165.559 60.3376 165.69 60.2975L165.697 60.2956C165.971 60.2097 166.175 60.0394 166.308 59.7848C166.441 59.5302 166.465 59.2658 166.379 58.9916C165.118 54.9668 163.554 51.0563 161.686 47.2602C161.625 47.1364 161.543 47.0289 161.439 46.9379C161.336 46.8468 161.219 46.779 161.088 46.7345C160.957 46.6901 160.823 46.6723 160.685 46.6812C160.548 46.6901 160.417 46.725 160.293 46.7859L160.293 46.7859ZM2.15163 70.1734C2.43406 70.2187 2.65951 70.3569 2.82796 70.5881C2.99642 70.8192 3.05893 71.0762 3.01549 71.3589C2.39255 75.4133 2.08109 79.5069 2.08108 83.6395C2.08108 83.9256 1.98026 84.1701 1.77862 84.373C1.57698 84.5759 1.33313 84.6783 1.04707 84.68L1.04054 84.6801C0.753205 84.6801 0.507946 84.5785 0.304768 84.3753C0.101589 84.1721 1.19209e-07 83.9269 0 83.6395C-1.19209e-07 79.4009 0.319514 75.202 0.958541 71.0429C0.979496 70.9065 1.02575 70.7793 1.0973 70.6613C1.16885 70.5433 1.26025 70.4435 1.37151 70.3619C1.48276 70.2803 1.6054 70.2231 1.73942 70.1902C1.87345 70.1574 2.00865 70.1515 2.14503 70.1724C2.14613 70.1726 2.14723 70.1727 2.14833 70.1729C2.14943 70.1731 2.15053 70.1733 2.15163 70.1734L2.15163 70.1734ZM169.083 84.9103C168.797 84.9077 168.554 84.8049 168.353 84.6017C168.152 84.3986 168.051 84.1542 168.052 83.8684L168.052 83.6394C168.052 79.5828 167.752 75.5634 167.152 71.5813C167.109 71.2985 167.172 71.0417 167.341 70.8111C167.51 70.5804 167.736 70.4428 168.019 70.3983L168.025 70.3973C168.162 70.3767 168.297 70.383 168.431 70.4163C168.565 70.4495 168.687 70.507 168.798 70.589C168.909 70.6709 169 70.771 169.072 70.8892C169.143 71.0073 169.189 71.1346 169.209 71.2711C169.825 75.356 170.133 79.4787 170.133 83.6394L170.133 83.8713C170.132 84.1586 170.03 84.4037 169.827 84.6066C169.624 84.8095 169.378 84.9108 169.091 84.9104L169.083 84.9103L169.083 84.9103ZM2.53894 94.7914C2.42907 94.7098 2.30783 94.6522 2.17523 94.6185C2.04262 94.5847 1.90857 94.5774 1.77309 94.5966C1.77199 94.5967 1.77089 94.5969 1.76979 94.5971C1.76869 94.5972 1.76759 94.5974 1.76649 94.5975C1.48225 94.6396 1.25449 94.7759 1.08322 95.0067C0.911956 95.2374 0.847342 95.4949 0.889381 95.7791C1.50617 99.9495 2.43824 104.046 3.6856 108.068C3.72648 108.2 3.79101 108.319 3.8792 108.425C3.9674 108.531 4.07254 108.616 4.19463 108.681C4.31673 108.745 4.44647 108.783 4.58387 108.796C4.72127 108.809 4.85587 108.795 4.98766 108.754L4.99405 108.752C5.2667 108.665 5.46925 108.495 5.6017 108.242C5.73416 107.988 5.75802 107.725 5.6733 107.452C4.45762 103.532 3.54921 99.5392 2.94807 95.4746C2.92788 95.3381 2.88235 95.2107 2.81146 95.0923C2.74057 94.9739 2.64973 94.8736 2.53894 94.7914L2.53894 94.7914ZM164.323 108.888C164.386 109.009 164.469 109.115 164.573 109.203C164.677 109.292 164.795 109.358 164.925 109.4L164.931 109.402C165.205 109.489 165.469 109.467 165.725 109.336C165.98 109.204 166.151 109.001 166.239 108.727C167.52 104.716 168.487 100.628 169.138 96.4643C169.183 96.1804 169.12 95.9224 168.951 95.6902C168.782 95.4581 168.555 95.3198 168.271 95.2754L168.265 95.2744C168.129 95.2541 167.995 95.2602 167.862 95.2928C167.729 95.3255 167.608 95.3821 167.497 95.4627C167.386 95.544 167.294 95.6436 167.222 95.7613C167.15 95.8791 167.104 96.0062 167.082 96.1425C166.447 100.201 165.505 104.185 164.256 108.094C164.214 108.226 164.199 108.36 164.211 108.498C164.222 108.635 164.26 108.765 164.323 108.888L164.323 108.888ZM10.2158 118.897C10.0902 118.64 9.8923 118.465 9.62208 118.371C9.35186 118.277 9.08784 118.292 8.83003 118.416L8.82406 118.419C8.70008 118.48 8.59241 118.562 8.50105 118.665C8.40969 118.769 8.34159 118.886 8.29675 119.016C8.25192 119.147 8.23376 119.281 8.24227 119.418C8.25079 119.556 8.28533 119.687 8.3459 119.811C10.1932 123.592 12.3209 127.219 14.7292 130.693C14.8078 130.806 14.9051 130.9 15.0211 130.975C15.1372 131.05 15.2631 131.099 15.3988 131.124C15.5346 131.149 15.6699 131.146 15.8048 131.117C15.9396 131.088 16.0638 131.034 16.1772 130.955C16.178 130.955 16.1789 130.954 16.1798 130.953C16.1807 130.953 16.1816 130.952 16.1825 130.951C16.4166 130.787 16.5587 130.564 16.6088 130.282C16.6588 130.001 16.6024 129.742 16.4394 129.507C14.0913 126.12 12.0167 122.584 10.2158 118.897L10.2158 118.897ZM153.307 130.062C153.142 130.295 153.084 130.553 153.131 130.835C153.179 131.117 153.319 131.341 153.552 131.508L153.557 131.512C153.792 131.677 154.051 131.736 154.334 131.687C154.617 131.638 154.842 131.496 155.007 131.261C157.444 127.808 159.602 124.199 161.481 120.434C161.609 120.177 161.628 119.912 161.537 119.639C161.445 119.367 161.271 119.167 161.014 119.038L161.008 119.035C160.885 118.975 160.756 118.94 160.619 118.931C160.483 118.922 160.35 118.939 160.22 118.982C160.089 119.026 159.971 119.093 159.867 119.184C159.763 119.274 159.68 119.381 159.619 119.505C157.787 123.175 155.683 126.694 153.307 130.062L153.307 130.062ZM24.1959 139.072C23.9996 138.864 23.7585 138.755 23.4726 138.746C23.1867 138.737 22.9391 138.83 22.7297 139.025L22.725 139.029C22.6246 139.124 22.5462 139.234 22.4897 139.36C22.4332 139.486 22.4029 139.618 22.3989 139.756C22.3949 139.894 22.4174 140.027 22.4664 140.156C22.5155 140.285 22.5874 140.4 22.6821 140.5C25.5719 143.564 28.676 146.4 31.9943 149.008C32.1028 149.093 32.2235 149.154 32.3563 149.192C32.4892 149.229 32.6241 149.239 32.7611 149.223C32.8981 149.206 33.0268 149.164 33.1471 149.097C33.2674 149.029 33.3701 148.941 33.4554 148.833L33.4594 148.828C33.6348 148.602 33.705 148.347 33.6701 148.063C33.6351 147.779 33.5052 147.548 33.2803 147.372C30.0431 144.827 27.015 142.061 24.1959 139.072L24.1959 139.072ZM136.319 147.788C136.093 147.962 135.961 148.192 135.924 148.475C135.887 148.759 135.955 149.015 136.128 149.242C136.129 149.243 136.13 149.244 136.13 149.245C136.131 149.245 136.132 149.246 136.132 149.247C136.308 149.475 136.538 149.606 136.823 149.643C137.108 149.679 137.365 149.61 137.592 149.434C140.931 146.854 144.058 144.043 146.973 141.003C147.172 140.795 147.269 140.548 147.263 140.261C147.257 139.973 147.15 139.73 146.943 139.531L146.938 139.527C146.73 139.33 146.483 139.235 146.197 139.242C145.911 139.249 145.669 139.356 145.471 139.562C142.627 142.528 139.577 145.27 136.319 147.788L136.319 147.788ZM43.4896 154.239C43.2411 154.098 42.9787 154.064 42.7026 154.139C42.4264 154.214 42.2167 154.375 42.0735 154.623L42.0703 154.628C42.002 154.748 41.9592 154.876 41.9419 155.013C41.9247 155.15 41.9342 155.285 41.9707 155.418C42.0071 155.551 42.0677 155.672 42.1523 155.781C42.2369 155.89 42.3391 155.979 42.459 156.047C46.1298 158.14 49.9351 159.95 53.8747 161.477C54.0033 161.527 54.1366 161.551 54.2746 161.548C54.4125 161.544 54.5446 161.515 54.6708 161.459C54.7971 161.404 54.9079 161.326 55.0032 161.226C55.0985 161.126 55.1711 161.012 55.221 160.883L55.2233 160.877C55.3251 160.61 55.3178 160.346 55.2015 160.084C55.0852 159.823 54.8937 159.641 54.6269 159.537C50.7834 158.047 47.071 156.281 43.4896 154.239L43.4896 154.239ZM114.295 160.324C114.239 160.448 114.208 160.579 114.204 160.716C114.199 160.853 114.221 160.985 114.268 161.114L114.27 161.12C114.372 161.388 114.554 161.582 114.816 161.7C115.078 161.818 115.343 161.826 115.612 161.725C119.563 160.229 123.383 158.45 127.07 156.388C127.321 156.247 127.486 156.039 127.564 155.762C127.642 155.486 127.611 155.222 127.471 154.971L127.467 154.966C127.4 154.847 127.312 154.745 127.204 154.661C127.097 154.576 126.977 154.515 126.845 154.478C126.713 154.441 126.578 154.43 126.441 154.446C126.304 154.462 126.175 154.504 126.054 154.571C122.457 156.584 118.731 158.319 114.875 159.778C114.746 159.827 114.632 159.899 114.531 159.993C114.43 160.088 114.352 160.198 114.295 160.324L114.295 160.324ZM66.3951 163.125C66.116 163.062 65.8553 163.107 65.6129 163.259C65.3706 163.411 65.217 163.626 65.1522 163.905L65.1508 163.911C65.1204 164.046 65.1169 164.181 65.1403 164.317C65.1637 164.453 65.2122 164.579 65.2859 164.696C65.3595 164.813 65.4527 164.911 65.5654 164.99C65.6781 165.07 65.8018 165.125 65.9364 165.155C70.035 166.081 74.19 166.705 78.4014 167.026C78.5389 167.036 78.6733 167.02 78.8044 166.977C78.9355 166.934 79.0535 166.868 79.1582 166.778C79.2629 166.688 79.3464 166.582 79.4087 166.459C79.4711 166.335 79.5075 166.205 79.518 166.068L79.5184 166.061C79.5384 165.776 79.4549 165.525 79.2679 165.308C79.0809 165.092 78.8448 164.973 78.5595 164.951C74.4494 164.638 70.3946 164.029 66.3951 163.125L66.3951 163.125ZM90.9035 164.999C90.6181 165.019 90.381 165.136 90.1923 165.351C90.0036 165.566 89.9181 165.817 89.9359 166.102L89.9363 166.108C89.9457 166.246 89.9811 166.377 90.0424 166.5C90.1038 166.624 90.1865 166.731 90.2905 166.822C90.3945 166.912 90.5118 166.98 90.6426 167.024C90.7734 167.068 90.9076 167.085 91.0453 167.076C95.2575 166.788 99.4153 166.198 103.519 165.306C103.799 165.245 104.017 165.093 104.173 164.852C104.328 164.61 104.375 164.349 104.314 164.068L104.313 164.062C104.283 163.928 104.229 163.805 104.15 163.693C104.072 163.581 103.975 163.488 103.86 163.414C103.744 163.339 103.618 163.29 103.482 163.265C103.346 163.241 103.211 163.243 103.076 163.272C99.0722 164.143 95.0146 164.719 90.9035 164.999L90.9035 164.999Z" id="Vector" fill="#333333" fill-rule="evenodd" stroke="none" />
          </g>
        </g>
        <g id="Group" transform="translate(104.18945 116.92944)">
          <g id="Group">
            <g id="Group" transform="translate(0 7.6293945E-06)">
              <path d="M0 29.4196C0 13.1716 13.3991 0 29.9277 0C46.4563 0 59.8553 13.1716 59.8553 29.4196C59.8553 45.6675 46.4563 58.8391 29.9277 58.8391C13.3991 58.8391 0 45.6675 0 29.4196Z" id="Ellipse" fill="#FFE700" fill-rule="evenodd" stroke="none" />
            </g>
            <g id="Group" transform="translate(7.6293945E-06 0)">
              <path d="M59.8553 29.4196C59.8553 45.6675 46.4563 58.8391 29.9277 58.8391C13.3991 58.8391 0 45.6675 0 29.4196C0 13.1716 13.3991 0 29.9277 0C35.9498 0 41.5565 1.7485 46.251 4.75724" id="Shape" fill="none" fill-rule="evenodd" stroke="#303030" stroke-width="2" stroke-linecap="round" stroke-linejoin="round" />
              <path d="M0 0C4.09515 2.62459 7.49623 6.20815 9.87352 10.4266" transform="translate(46.251045 4.7572403)" id="Shape" fill="none" fill-rule="evenodd" stroke="#303030" stroke-width="2" stroke-linecap="round" stroke-linejoin="round" />
            </g>
            <g id="Group" transform="translate(22.654297 14.184883)">
              <path d="M0.140503 18.7773C6.4769 23.4609 12.6407 20.9428 13.7869 17.7375C14.933 14.5323 12.9331 11.6268 7.04344 10.6763L7.05223 10.6817C1.1626 9.73112 -0.837326 6.82561 0.308792 3.62038C1.45491 0.415161 7.61876 -2.103 13.9552 2.58069" transform="translate(0 3.816101)" id="Shape" fill="none" fill-rule="evenodd" stroke="#333333" stroke-width="2" stroke-linecap="round" stroke-linejoin="round" />
              <path d="M1 0L1 29.105" transform="translate(6.2733765 0)" id="Line" fill="none" fill-rule="evenodd" stroke="#333333" stroke-width="2" stroke-linecap="round" stroke-linejoin="round" />
            </g>
          </g>
          <path d="M0 1.08319C0 0.484961 0.493337 0 1.1019 0C1.71046 0 2.2038 0.484961 2.2038 1.08319C2.2038 1.68142 1.71046 2.16638 1.1019 2.16638C0.493337 2.16638 0 1.68142 0 1.08319Z" transform="translate(57.65155 20.643593)" id="Ellipse" fill="#303030" fill-rule="evenodd" stroke="none" />
        </g>
      </g>
    </g>
  </g>
</svg>